<svg xmlns="http://www.w3.org/2000/svg" shape-rendering="geometricPrecision" text-rendering="geometricPrecision" image-rendering="optimizeQuality" fill-rule="evenodd" clip-rule="evenodd" viewBox="0 0 512 407.952"><path fill="#263036" d="M415.316 0H30.156C13.57 0 0 13.572 0 30.157v323.034c0 16.585 13.573 30.157 30.156 30.157h300.525l-26.028-22.151H29.56a8.239 8.239 0 01-5.907-2.44 8.248 8.248 0 01-2.441-5.909V84.436h-.128 401.943v123.193l22.445 18.172V30.157C445.472 13.57 431.903 0 415.316 0z"/><path fill="#FFD150" d="M109.203 34.246c8.249 0 14.938 6.688 14.938 14.939 0 8.251-6.689 14.938-14.938 14.938-8.251 0-14.94-6.687-14.94-14.938 0-8.251 6.689-14.939 14.94-14.939z"/><path fill="#F26A64" d="M58.608 34.246c8.25 0 14.937 6.688 14.937 14.939 0 8.251-6.688 14.938-14.937 14.938-8.25 0-14.94-6.687-14.94-14.938 0-8.251 6.689-14.939 14.94-14.939z"/><path fill="#0CB2ED" d="M159.797 34.246c8.251 0 14.938 6.688 14.938 14.939 0 8.251-6.687 14.938-14.938 14.938-8.25 0-14.94-6.687-14.94-14.938.038-8.251 6.724-14.939 14.94-14.939z"/><path fill="#311300" fill-rule="nonzero" d="M368.013 236.649c.45.268.841.599 1.167.977l131.986 129.706c9.48 8.943 11.967 18.008 10.398 25.294a18.827 18.827 0 01-4.251 8.439 19.969 19.969 0 01-7.471 5.329c-6.572 2.702-14.792 2.094-21.764-3.459L323.111 292.72c-.747-.533-2.458-3.063-3.209-4.083-6.959-9.44-11.272-16.269-15.248-22.572-6.022-9.549-13.329-20.267-25.262-33.685-10.209 3.384-20.407 2.421-29.808-1.332-12.883-5.143-24.208-15.603-31.809-27.121-6.277-9.505-10.749-20.141-14.019-30.409-3.194-10.028-5.257-19.839-6.746-27.832a4.75 4.75 0 013.788-5.542l.281-.051a4.74 4.74 0 013.432.88c11.03 7.858 25.526 8.87 39.708 9.859 21.695 1.513 42.753 2.982 54.405 26.058l.018.037a45.106 45.106 0 013.541 9.83c1.167 4.977 1.524 10.167 1.016 15.208l.268.147 63.322 33.611a4.68 4.68 0 011.224.926z"/><path fill="#E6896D" d="M325.868 288.849c16.488-12.791 29.996-29.102 39.534-47.667l132.502 129.596c22.707 21.462-1.193 41.246-17.071 28.289L325.868 288.849z"/><path fill="#D16E4F" d="M361.609 248.09a141.764 141.764 0 003.793-6.908l132.502 129.596c8.013 7.574 10.217 14.937 9.023 20.728L361.609 248.09z"/><path fill="#FADD98" d="M201.7 144.806c28.673 20.506 74.609-1.571 92.687 34.227a40.79 40.79 0 011.541 32.748 26.696 26.696 0 01-7.754 10.662 28.995 28.995 0 01-5.169 3.311c-23.579 11.726-48.184-4.644-61.254-24.45-12.015-18.191-17.175-40.918-20.076-56.495l.025-.003z"/><path fill="#FFBB69" d="M201.7 144.806c28.673 20.506 74.609-1.571 92.687 34.227a40.832 40.832 0 014.251 18.104 40.841 40.841 0 01-1.395 10.589c-8.407-4.248-14.326-11.543-18.943-20.939-7.735-15.74-21.197-21.15-38.111-22.543-22.428-1.848-26.114-1.68-35.672-5.873-1.16-4.874-2.079-9.465-2.842-13.562l.025-.003z"/><path fill="#CECDD2" d="M284.775 231.356c2.31-1.246 4.521-3.108 6.543-5.404 5.818-4.899 9.451-11.653 11.087-19.02l59.173 31.409c-.153.21-.292.433-.41.664-9.158 17.826-22.181 33.611-37.995 45.929l-.069.047c-16.601-22.676-18.243-31.095-38.329-53.625z"/><path fill="#ADAAB9" d="M299.842 214.654c1.03-2.399 1.875-5.302 2.513-7.705l59.644 30.486a186.172 186.172 0 01-3.657 6.946l-58.5-29.727z"/></svg>